<?xml version="1.0" encoding="utf-8"?>
<!-- Generator: Adobe Illustrator 27.2.0, SVG Export Plug-In . SVG Version: 6.00 Build 0)  -->
<svg version="1.1" id="Layer_1" xmlns="http://www.w3.org/2000/svg" xmlns:xlink="http://www.w3.org/1999/xlink" x="0px" y="0px"
	 viewBox="0 0 46 46" style="enable-background:new 0 0 46 46;" xml:space="preserve">
<style type="text/css">
	.st0{fill:#002F5E;}
	.st1{fill:#0066CC;}
</style>
<path class="st0" d="M23.5,36c-0.4,0-0.9-0.1-1.4-0.2C18.3,34.7,9.1,25.4,8.7,25c-0.2-0.3-0.2-0.7,0-0.9c0.3-0.2,0.7-0.2,0.9,0
	c2.6,2.6,10,9.7,12.9,10.5c0.8,0.2,1.4,0.2,1.8,0.1c-0.8-0.7-1.8-1.8-3.2-3.5c-0.6-0.6-1.2-1.3-1.9-2.1c-0.2-0.3-0.2-0.7,0.1-0.9
	c0.3-0.2,0.7-0.2,0.9,0.1c0.7,0.8,1.3,1.5,1.9,2.1c1.7,1.9,2.7,3.1,3.5,3.7c0.6,0.5,0.9,0.5,1.3,0.2c0.5-0.2,0.9-0.7,1.3-1.2
	c-0.8-0.7-1.8-1.8-3.2-3.5c-0.6-0.6-1.2-1.3-1.9-2.1c-0.2-0.3-0.2-0.7,0.1-0.9c0.3-0.2,0.7-0.2,0.9,0.1c0.7,0.8,1.3,1.5,1.9,2.1
	c1.6,1.9,2.6,3,3.4,3.6c0,0,0,0,0,0c0.1,0,0.1,0.1,0.2,0.1c0.6,0.4,0.8,0.4,1.2,0.2c0.4-0.2,0.8-0.6,1.1-1c-0.1-0.1-0.2-0.1-0.2-0.2
	c-0.8-0.7-1.9-1.9-3.7-3.9c-0.6-0.6-1.2-1.3-1.9-2.1c-0.2-0.3-0.2-0.7,0.1-0.9c0.3-0.2,0.7-0.2,0.9,0.1c0.7,0.8,1.3,1.5,1.9,2.1
	c1.7,1.9,2.7,3.1,3.5,3.7c0.1,0.1,0.3,0.2,0.4,0.3c0.1,0,0.2,0,0.4,0.1c0,0,0,0,0.1,0c0.2,0,0.3-0.1,0.5-0.1
	c0.1-0.1,0.5-0.4,0.6-0.5c0.4-0.5,0.3-1.2-0.1-1.7c0,0,0-0.1-0.1-0.1c-0.1-0.2-0.3-0.4-0.4-0.5c-1.9-1.8-6.2-5.7-8.9-7.9
	c-1,0.9-3.5,2.8-5.6,2.8c-0.1,0-0.1,0-0.2,0c-1.3-0.1-2-0.7-2.3-1.3c-0.6-1-0.4-2.5,0-3.5c0.3-0.7,1.3-2,2.6-3.2h-7.2
	c-0.4,0-0.6-0.3-0.6-0.6c0-0.4,0.3-0.6,0.6-0.6h8.8c0.9-0.6,1.9-1.1,2.8-1.1c0,0,0,0,0.1,0c2.4,0,9.3,1.6,9.6,1.6
	c0.3,0.1,0.6,0.4,0.5,0.8c-0.1,0.3-0.4,0.6-0.8,0.5c-0.1,0-7.2-1.6-9.4-1.6c-1.9,0-5.2,3.5-5.8,4.8c-0.3,0.7-0.4,1.6-0.1,2.3
	c0.2,0.4,0.7,0.6,1.3,0.7c1.7,0.1,4.4-2,5.3-2.9c0.2-0.2,0.6-0.2,0.8,0c2.6,2.2,7.3,6.4,9.4,8.3c0.1,0.1,0.1,0.1,0.2,0.2l2-1.6
	c0.3-0.2,0.7-0.2,0.9,0.1c0.2,0.3,0.2,0.7-0.1,0.9l-2.1,1.7c0.4,0.9,0.4,1.9-0.3,2.8c-0.2,0.2-0.7,0.7-1,0.8
	c-0.4,0.2-0.8,0.3-1.2,0.3c-0.4,0.5-1,1.3-1.8,1.7c-0.7,0.4-1.4,0.4-2.1,0c-0.4,0.5-1,1.2-1.7,1.6c-0.7,0.4-1.3,0.4-2,0.1
	C25,35.7,24.4,36,23.5,36z"/>
<path class="st1" d="M42.8,27.3h-5.3c-0.3,0-0.5-0.2-0.6-0.4L32.2,14c-0.1-0.2,0-0.4,0.1-0.6c0.1-0.1,1.8-2.2,5.8-3.1
	c2.3-0.5,4.7-0.3,4.8-0.3c0.3,0,0.6,0.3,0.6,0.6v16C43.5,27,43.2,27.3,42.8,27.3z M37.9,26h4.3V11.2c-0.8,0-2.3,0-3.8,0.3
	c-2.8,0.6-4.3,1.9-4.8,2.4L37.9,26z M8.5,27.3H3.2c-0.4,0-0.6-0.3-0.6-0.6v-16c0-0.3,0.3-0.6,0.6-0.6c0.1,0,2.4-0.1,4.7,0.3
	c3.4,0.6,4.7,1.4,4.8,1.5c0.2,0.1,0.4,0.4,0.3,0.7L9.2,26.8C9.1,27.1,8.8,27.3,8.5,27.3z M3.9,26h4.2l3.5-13.3
	c-0.6-0.3-1.8-0.7-3.9-1.1c-1.5-0.3-3-0.3-3.8-0.3V26z"/>
<path class="st1" d="M8.4,14.7c0,0.6-0.5,1.1-1.1,1.1c-0.6,0-1.1-0.5-1.1-1.1s0.5-1.1,1.1-1.1C7.9,13.6,8.4,14.1,8.4,14.7z
	 M37.6,14.7c0,0.6,0.5,1.1,1.1,1.1c0.6,0,1.1-0.5,1.1-1.1s-0.5-1.1-1.1-1.1C38.1,13.6,37.6,14.1,37.6,14.7z"/>
</svg>
