<svg width="155" height="40" viewBox="0 0 155 40" fill="none" xmlns="http://www.w3.org/2000/svg">
<g clip-path="url(#clip0_9092_94079)">
<path d="M80.751 39.3171V11.2445H86.9649C87.1396 12.5146 87.3143 13.782 87.4988 15.1201C87.6075 14.9777 87.6788 14.8928 87.7403 14.8017C89.8865 11.6275 92.965 10.4008 96.7056 10.6449C98.9008 10.7882 100.797 11.6337 102.209 13.3512C102.738 13.9942 103.141 14.738 103.58 15.4031C104.036 14.8282 104.49 14.1746 105.026 13.5953C106.633 11.8574 108.674 10.9615 111.008 10.6865C112.962 10.4556 114.864 10.6263 116.648 11.5214C118.802 12.6021 120.097 14.3878 120.83 16.6192C121.266 17.9476 121.429 19.3211 121.444 20.7114C121.503 26.7689 121.552 32.8263 121.605 38.8838C121.606 39.0138 121.605 39.1447 121.605 39.3074H114.733V38.7414C114.733 33.1553 114.742 27.5693 114.723 21.9832C114.72 21.2085 114.658 20.416 114.486 19.6625C113.974 17.4302 112.275 16.2009 109.966 16.3088C107.163 16.4397 105.267 18.1254 104.802 20.9432C104.69 21.6233 104.634 22.3202 104.633 23.0092C104.619 28.2565 104.625 33.5038 104.625 38.7502V39.3083H97.7555C97.7555 39.1332 97.7555 38.9616 97.7555 38.7909C97.7529 32.9546 97.76 27.1173 97.735 21.281C97.7324 20.6283 97.6156 19.9535 97.4266 19.3273C96.8135 17.2967 95.153 16.2035 92.9516 16.3096C90.2626 16.4388 88.4676 18.0237 87.8687 20.8901C87.6895 21.7489 87.6191 22.643 87.6147 23.5221C87.5915 28.6067 87.6031 33.6922 87.6031 38.7768V39.318H80.751V39.3171Z" fill="#4896C2"/>
<path d="M154.941 26.777H134.291C134.267 27.8401 134.444 28.8333 134.784 29.7902C135.655 32.2339 137.265 33.9586 139.882 34.4883C142.342 34.9863 144.659 34.6484 146.49 32.7354C146.901 32.3064 147.162 31.7378 147.51 31.246C147.598 31.1213 147.752 30.9577 147.877 30.9568C150.103 30.9391 152.33 30.9444 154.687 30.9444C154.397 31.7112 154.181 32.44 153.856 33.1175C152.519 35.9069 150.293 37.7616 147.43 38.8503C143.474 40.3556 139.468 40.4131 135.524 38.8486C131.8 37.3716 129.33 34.629 128.125 30.8586C126.627 26.1774 126.863 21.5642 129.272 17.2128C131.347 13.4637 134.657 11.3827 138.901 10.768C141.497 10.3921 144.061 10.5787 146.544 11.4446C150.462 12.8101 152.893 15.5943 154.147 19.4584C154.904 21.7888 155.045 24.1936 154.986 26.6205C154.985 26.6611 154.963 26.7009 154.939 26.7779L154.941 26.777ZM134.412 22.3867H147.986C147.636 18.6332 145.691 15.8269 141.394 15.7623C137.544 15.704 134.712 18.3458 134.411 22.3867H134.412Z" fill="#4896C2"/>
<path d="M14.7891 39.304V11.2517H21.0645C21.2374 12.5014 21.413 13.7732 21.6002 15.129C21.9201 14.7284 22.1715 14.3897 22.4478 14.0722C24.8488 11.3101 27.9549 10.3726 31.5182 10.6565C33.1885 10.7892 34.7482 11.2694 36.127 12.244C38.0004 13.5689 39.0708 15.4191 39.5209 17.6116C39.7357 18.6579 39.8436 19.7422 39.8489 20.8106C39.8792 26.838 39.8641 32.8645 39.8632 38.8918C39.8632 39.0227 39.8525 39.1527 39.8445 39.3119H32.8738C32.8738 39.1359 32.8738 38.9511 32.8738 38.7663C32.8703 33.1369 32.8712 27.5075 32.8605 21.879C32.8587 20.9291 32.6778 20.0022 32.2892 19.1284C31.4442 17.2269 29.6875 16.2134 27.4308 16.3089C24.356 16.4389 22.3675 18.2316 21.9085 21.3368C21.7882 22.1496 21.7249 22.9775 21.7223 23.7991C21.7053 28.7802 21.7142 33.7604 21.7142 38.7415C21.7142 38.9175 21.7142 39.0935 21.7142 39.3058H14.7891V39.304Z" fill="#2F66A0"/>
<path d="M60.0216 16.4379H54.8994C54.8994 16.621 54.8994 16.7775 54.8994 16.934C54.8994 21.6206 54.8994 26.3072 54.9012 30.9929C54.9012 31.2432 54.9155 31.4935 54.9422 31.742C55.1107 33.3181 55.9503 34.1388 57.5474 34.2016C58.4476 34.237 59.3522 34.1689 60.2997 34.1468C60.3032 34.1892 60.321 34.313 60.3219 34.436C60.3237 35.9395 60.313 37.4421 60.3317 38.9457C60.3362 39.2826 60.2275 39.3905 59.8995 39.4498C57.6561 39.8584 55.4146 39.9451 53.1811 39.4277C50.3032 38.7599 48.6097 36.9274 48.206 34.0097C48.0696 33.0209 48.001 32.0153 47.9966 31.0177C47.9752 26.3461 47.9867 21.6746 47.9867 17.003C47.9867 16.8297 47.9867 16.6572 47.9867 16.4414H44.6338V11.2189H47.9814V4.62988H54.7408V11.2029H60.0225V16.437L60.0216 16.4379Z" fill="#4896C2"/>
<path d="M7.53318 39.3243H0.629395V11.2473H7.53318V39.3243Z" fill="#2F66A0"/>
<path d="M66.5815 11.2305H73.4889V39.311H66.5815V11.2305Z" fill="#4896C2"/>
<path d="M8.26707 3.94987C8.26885 6.23523 6.49611 7.94659 4.13246 7.94306C1.81159 7.93863 0.0174661 6.214 -0.00035927 3.97109C-0.0181847 1.76445 1.81338 0.00531888 4.13335 1.23134e-05C6.47561 -0.00529425 8.26529 1.70519 8.26707 3.94987Z" fill="#2F66A0"/>
<path d="M74.2208 3.98605C74.2101 6.26168 72.4186 7.96066 70.0496 7.94209C67.7368 7.9244 65.9373 6.16351 65.9542 3.93387C65.9703 1.71572 67.8107 -0.020409 70.1245 -6.72073e-05C72.4748 0.0202746 74.2323 1.72987 74.2216 3.98516L74.2208 3.98605Z" fill="#4896C2"/>
</g>
<defs>
<clipPath id="clip0_9092_94079">
<rect width="155" height="40" fill="white"/>
</clipPath>
</defs>
</svg>
