<svg width="133" height="26" viewBox="0 0 133 26" fill="none" xmlns="http://www.w3.org/2000/svg">
<g clip-path="url(#clip0_9074_94828)">
<path d="M132.175 6.3568C132.174 6.34067 132.174 6.32446 132.175 6.30832V6.16101C132.181 6.09295 132.17 6.02457 132.144 5.96113C132.119 5.89768 132.079 5.84087 132.027 5.79505C131.957 5.74698 131.875 5.71566 131.79 5.70356C131.896 5.69519 131.997 5.65672 132.081 5.59286C132.122 5.55491 132.154 5.50815 132.174 5.45614C132.194 5.40414 132.202 5.34826 132.197 5.29277C132.202 5.21315 132.184 5.13376 132.144 5.06414C132.105 4.99452 132.046 4.93762 131.974 4.90027C131.872 4.84865 131.759 4.81962 131.645 4.81519H131.299H130.835V6.46203H131.273V5.87922H131.366L131.459 5.88562C131.51 5.88664 131.56 5.89527 131.608 5.91125C131.637 5.92139 131.662 5.93755 131.684 5.95859C131.704 5.97962 131.721 6.005 131.731 6.03293C131.749 6.09842 131.759 6.16616 131.759 6.23421C131.76 6.31087 131.77 6.38717 131.786 6.46203H132.204L132.189 6.41536C132.181 6.39674 132.177 6.37695 132.175 6.3568ZM131.678 5.5096C131.606 5.55362 131.522 5.57472 131.438 5.56998H131.268V5.0924H131.375C131.461 5.08941 131.547 5.10086 131.629 5.12625C131.668 5.13841 131.702 5.16276 131.727 5.1957C131.751 5.22864 131.765 5.26844 131.764 5.30923C131.769 5.34712 131.763 5.38541 131.747 5.42049C131.733 5.45557 131.708 5.48624 131.678 5.5096Z" fill="#223F32"/>
<path d="M132.561 4.57336C132.422 4.43287 132.256 4.32175 132.073 4.24685C131.889 4.17196 131.692 4.13487 131.493 4.13786C131.107 4.13379 130.734 4.27859 130.455 4.54134C130.302 4.6781 130.182 4.8456 130.099 5.0325C130.018 5.21941 129.979 5.42133 129.984 5.62459C129.984 5.86918 130.045 6.11004 130.162 6.32581C130.279 6.54157 130.449 6.72559 130.655 6.86154C130.861 6.99748 131.099 7.08116 131.345 7.10516C131.593 7.12914 131.842 7.09272 132.072 6.99909C132.302 6.90546 132.504 6.75753 132.662 6.5684C132.819 6.37928 132.927 6.15481 132.975 5.91489C133.023 5.67497 133.011 5.42702 132.938 5.193C132.866 4.95899 132.736 4.74616 132.561 4.57336ZM132.375 6.49468C132.26 6.60944 132.123 6.70058 131.972 6.76278C131.821 6.82499 131.659 6.85703 131.495 6.85703C131.332 6.85703 131.169 6.82499 131.019 6.76278C130.867 6.70058 130.73 6.60944 130.616 6.49468C130.382 6.26459 130.249 5.95257 130.248 5.62683C130.247 5.30108 130.377 4.98812 130.609 4.75635C130.723 4.63923 130.86 4.54604 131.012 4.48239C131.163 4.41874 131.327 4.38592 131.492 4.38592C131.657 4.38592 131.82 4.41874 131.972 4.48239C132.124 4.54604 132.261 4.63923 132.375 4.75635C132.491 4.86843 132.582 5.00247 132.645 5.15041C132.708 5.29834 132.739 5.45714 132.737 5.61727C132.741 5.78079 132.711 5.94331 132.648 6.09494C132.585 6.24656 132.492 6.38412 132.375 6.49925V6.49468Z" fill="#223F32"/>
<path d="M19.2788 16.2146C19.3297 16.184 19.3884 16.1684 19.4479 16.1698H34.1804C34.3012 16.1698 34.4174 16.1236 34.5041 16.0406C34.5907 15.9578 34.6413 15.845 34.6449 15.726C34.6598 15.2292 34.6812 14.4452 34.6812 14.1241C34.6812 11.4662 33.7929 9.00054 32.1799 7.1945C30.3216 5.10851 27.6048 4.00513 24.3222 4.00513C21.0758 4.00513 18.3655 5.14602 16.4831 7.30338C14.8041 9.22468 13.8815 11.8697 13.8815 14.7406C13.8815 17.5321 14.9035 20.2677 16.6968 22.2429C18.7 24.4625 21.4818 25.6382 24.7385 25.6382C27.1942 25.6382 29.4195 25.0059 31.1737 23.8084C32.922 22.6334 34.1613 20.8577 34.6486 18.8294C34.6533 18.8074 34.6589 18.7196 34.6635 18.6117C34.6663 18.5499 34.6564 18.4883 34.6343 18.4304C34.6122 18.3726 34.5783 18.3198 34.5349 18.2751C34.4915 18.2304 34.4394 18.195 34.3816 18.1707C34.3239 18.1465 34.2618 18.134 34.199 18.1341H29.9612C29.8349 18.1349 29.712 18.1744 29.6094 18.247C29.5069 18.3196 29.4299 18.4218 29.3888 18.5393C28.7738 20.2622 27.1653 21.1734 24.7385 21.1734C21.6983 21.1734 19.6607 19.4698 19.1469 16.4991C19.1384 16.4442 19.1463 16.3881 19.1698 16.3375C19.1932 16.287 19.2311 16.2442 19.2788 16.2146ZM19.3151 11.995C19.9423 9.38388 21.6268 8.06092 24.3213 8.06092C26.9229 8.06092 28.7942 9.57693 29.2077 12.017C29.2151 12.0622 29.2126 12.1084 29.2 12.1525C29.1875 12.1966 29.1653 12.2374 29.1352 12.2723C29.1046 12.3082 29.0664 12.3371 29.0231 12.3569C28.9799 12.3767 28.9329 12.3868 28.8852 12.3866H19.6328C19.5835 12.3867 19.5347 12.3757 19.4903 12.3544C19.4458 12.3332 19.4068 12.3023 19.3764 12.264C19.3453 12.2263 19.3236 12.1821 19.3131 12.1349C19.3024 12.0875 19.3031 12.0384 19.3151 11.9914V11.995Z" fill="#223F32"/>
<path d="M86.661 4.4219H82.3638C82.2405 4.4219 82.1224 4.4701 82.0353 4.55588C81.9481 4.64167 81.8992 4.75802 81.8992 4.87936V6.04769C81.8996 6.09487 81.8855 6.14108 81.8588 6.18025C81.8321 6.21943 81.7941 6.24977 81.7496 6.26728C81.7058 6.28549 81.6573 6.29018 81.6106 6.28071C81.5641 6.27123 81.5214 6.24804 81.4885 6.21421C80.1403 4.86654 78.0721 4.09253 75.8133 4.09253C72.7732 4.09253 70.2385 5.12455 68.4731 7.07605C66.7524 8.97724 65.8437 11.6506 65.8437 14.818C65.8437 17.9854 66.7561 20.6634 68.4833 22.5609C70.2552 24.5124 72.8169 25.5463 75.8969 25.5463C78.1371 25.5463 80.2778 24.7365 81.4839 23.4319C81.5157 23.397 81.5576 23.3726 81.604 23.362C81.6503 23.3513 81.6989 23.355 81.743 23.3724C81.7891 23.3892 81.8287 23.4197 81.8567 23.4594C81.8846 23.4992 81.8994 23.5464 81.8992 23.5947V24.7603C81.8992 24.8816 81.9481 24.9981 82.0353 25.0838C82.1224 25.1696 82.2405 25.2178 82.3638 25.2178H86.661C86.7842 25.2178 86.9024 25.1696 86.9895 25.0838C87.0766 24.9981 87.1256 24.8816 87.1256 24.7603V4.87936C87.1256 4.75802 87.0766 4.64167 86.9895 4.55588C86.9024 4.4701 86.7842 4.4219 86.661 4.4219ZM76.6059 21.098C74.9595 21.098 73.5592 20.5051 72.5585 19.3834C71.5579 18.2618 71.0208 16.6789 71.0208 14.818C71.0208 12.9571 71.5523 11.3798 72.5585 10.2536C73.5648 9.12727 74.9595 8.53808 76.6059 8.53808C80.0493 8.53808 82.2737 11.0083 82.2737 14.818C82.2737 18.6277 80.0493 21.098 76.6059 21.098Z" fill="#223F32"/>
<path d="M108.819 17.5974H104.554C104.427 17.5965 104.302 17.6356 104.199 17.709C104.096 17.7823 104.02 17.8862 103.981 18.0055C103.382 19.8564 101.629 21.0064 99.4038 21.0064C97.7318 21.0064 96.3483 20.3989 95.3932 19.2498C94.4789 18.1519 93.9994 16.6175 93.9994 14.8179C93.9994 13.0184 94.4733 11.484 95.3709 10.3861C96.3102 9.237 97.6769 8.62951 99.3246 8.62951C101.542 8.62951 103.444 9.90491 103.953 11.7301C103.988 11.8547 104.065 11.9645 104.169 12.0427C104.274 12.1208 104.402 12.1631 104.533 12.1629H108.726C108.813 12.1628 108.9 12.144 108.979 12.1079C109.058 12.0718 109.128 12.0192 109.185 11.9537C109.242 11.8883 109.284 11.8115 109.307 11.7287C109.331 11.6459 109.337 11.559 109.323 11.474C108.97 9.26994 107.793 7.38888 105.919 6.03208C104.11 4.72283 101.723 4.00098 99.1994 4.00098C96.0184 4.00098 93.2877 5.09886 91.3021 7.16656C89.4178 9.13087 88.3799 11.849 88.3799 14.8179C88.3799 17.7869 89.4178 20.506 91.3021 22.4702C93.2868 24.5407 96.0175 25.6349 99.1994 25.6349C104.369 25.6349 108.473 22.6944 109.414 18.3156C109.433 18.2289 109.432 18.1391 109.41 18.0529C109.39 17.9667 109.349 17.8861 109.293 17.8172C109.236 17.7482 109.165 17.6926 109.083 17.6543C109.002 17.6159 108.913 17.5959 108.823 17.5956L108.819 17.5974Z" fill="#223F32"/>
<path d="M116.056 16.1656H130.682C130.826 16.1651 130.964 16.1113 131.07 16.0148C131.175 15.9184 131.241 15.7864 131.251 15.645C131.28 15.259 131.3 14.6176 131.3 14.1199C131.3 11.462 130.412 8.99638 128.8 7.19035C126.941 5.10435 124.224 4.00098 120.942 4.00098C117.695 4.00098 114.985 5.14187 113.103 7.29922C111.424 9.22053 110.5 11.8655 110.5 14.7365C110.5 17.5279 111.523 20.2635 113.315 22.2388C115.323 24.4592 118.105 25.6322 121.362 25.6322C123.817 25.6322 126.043 25 127.797 23.8024C129.532 22.6363 130.765 20.8779 131.26 18.8673C131.282 18.7798 131.284 18.6883 131.264 18.6C131.246 18.5117 131.206 18.4288 131.15 18.3577C131.093 18.2865 131.021 18.2291 130.938 18.1897C130.855 18.1502 130.765 18.1298 130.673 18.13H126.586C126.46 18.1309 126.336 18.1705 126.234 18.2431C126.132 18.3157 126.055 18.4178 126.014 18.5353C125.397 20.258 123.791 21.1693 121.368 21.1693C118.394 21.1693 116.303 19.3531 115.776 16.312C115.768 16.2815 115.772 16.2488 115.786 16.2205C115.794 16.2004 115.854 16.1656 116.056 16.1656ZM115.936 11.9909C116.563 9.37973 118.247 8.05677 120.942 8.05677C123.543 8.05677 125.414 9.57278 125.827 12.0128C125.835 12.0579 125.833 12.1042 125.82 12.1483C125.808 12.1924 125.786 12.2334 125.755 12.2681C125.725 12.304 125.687 12.3329 125.644 12.3528C125.6 12.3725 125.553 12.3826 125.506 12.3824H116.253C116.204 12.3825 116.155 12.3715 116.111 12.3503C116.066 12.3291 116.027 12.2982 115.997 12.2598C115.966 12.2227 115.945 12.179 115.934 12.1324C115.923 12.0857 115.924 12.0374 115.936 11.9909Z" fill="#223F32"/>
<path d="M50.0769 4.07135H46.8936C46.4863 4.07114 46.0839 4.15884 45.7146 4.3283C45.3454 4.49775 45.0184 4.74483 44.7566 5.05214L42.0445 8.24151C42.0077 8.28468 41.9584 8.31568 41.9033 8.33031C41.848 8.34496 41.7895 8.34252 41.7359 8.32334C41.6821 8.30417 41.6356 8.26917 41.6028 8.22312C41.5698 8.17706 41.5521 8.12215 41.552 8.06585V0.457455C41.552 0.33613 41.5031 0.219775 41.416 0.133986C41.3288 0.0481964 41.2107 0 41.0875 0H36.7131C36.5898 0 36.4717 0.0481964 36.3846 0.133986C36.2974 0.219775 36.2485 0.33613 36.2485 0.457455V17.8289C36.2485 22.5004 39.1855 25.4025 44.0635 25.4025H49.984C50.1072 25.4025 50.2254 25.3542 50.3125 25.2685C50.3996 25.1827 50.4485 25.0663 50.4485 24.945V20.8975C50.4485 20.7761 50.3996 20.6598 50.3125 20.574C50.2254 20.4882 50.1072 20.44 49.984 20.44H44.6451C43.217 20.44 41.5501 19.7026 41.5501 17.624V9.58276C41.5501 9.46144 41.5991 9.34508 41.6863 9.25929C41.7734 9.1735 41.8916 9.12532 42.0148 9.12532H50.0769C50.2001 9.12532 50.3183 9.07712 50.4054 8.99133C50.4925 8.90554 50.5414 8.78918 50.5414 8.66786V4.52881C50.5414 4.40748 50.4925 4.29113 50.4054 4.20534C50.3183 4.11955 50.2001 4.07135 50.0769 4.07135Z" fill="#223F32"/>
<path d="M66.1268 8.66803V4.52899C66.1268 4.40767 66.0779 4.2913 65.9908 4.20552C65.9036 4.11973 65.7855 4.07153 65.6623 4.07153H62.48C62.0725 4.07154 61.6699 4.15954 61.3007 4.32931C60.9315 4.49908 60.6046 4.7465 60.343 5.05414L57.6307 8.24352C57.5941 8.28668 57.5448 8.31769 57.4895 8.33233C57.4344 8.34696 57.3759 8.34454 57.3221 8.32535C57.2684 8.30618 57.2219 8.27119 57.189 8.22513C57.1562 8.17906 57.1385 8.12416 57.1384 8.06786V6.30483V4.52899C57.1384 4.40767 57.0894 4.2913 57.0022 4.20552C56.9152 4.11973 56.797 4.07153 56.6737 4.07153H52.3254C52.2022 4.07153 52.084 4.11973 51.9969 4.20552C51.9098 4.2913 51.8608 4.40767 51.8608 4.52899L51.8385 24.9653C51.8385 25.0866 51.8875 25.2031 51.9746 25.2888C52.0617 25.3746 52.1799 25.4228 52.3031 25.4228H56.67C56.7932 25.4228 56.9115 25.3746 56.9985 25.2888C57.0856 25.2031 57.1346 25.0866 57.1346 24.9653V11.1337V9.57837C57.1346 9.45705 57.1835 9.34069 57.2707 9.2549C57.3578 9.16911 57.4759 9.12092 57.5992 9.12092H65.6623C65.7847 9.12092 65.9022 9.07336 65.9891 8.98856C66.0762 8.90375 66.1256 8.78857 66.1268 8.66803Z" fill="#223F32"/>
<path d="M14.293 8.66803V4.52899C14.293 4.40767 14.244 4.2913 14.1569 4.20552C14.0697 4.11973 13.9516 4.07153 13.8284 4.07153H10.6442C10.2367 4.07154 9.83418 4.15954 9.46498 4.32931C9.09575 4.49908 8.76883 4.7465 8.50722 5.05414L5.79413 8.24352C5.75741 8.28668 5.70811 8.31769 5.6529 8.33233C5.59769 8.34696 5.53923 8.34454 5.48548 8.32535C5.43172 8.30618 5.38525 8.27119 5.35237 8.22513C5.31949 8.17906 5.30179 8.12416 5.30167 8.06786V6.30483V4.52899C5.30167 4.40767 5.25273 4.2913 5.16561 4.20552C5.07849 4.11973 4.96032 4.07153 4.8371 4.07153H0.487799C0.364587 4.07153 0.246422 4.11973 0.159298 4.20552C0.0721738 4.2913 0.0232285 4.40767 0.0232285 4.52899L0 24.9653C0 25.0866 0.0489453 25.2031 0.136069 25.2888C0.223193 25.3746 0.341358 25.4228 0.46457 25.4228H4.83153C4.95474 25.4228 5.07291 25.3746 5.16003 25.2888C5.24715 25.2031 5.2961 25.0866 5.2961 24.9653V11.1337V9.57837C5.2961 9.45705 5.34505 9.34069 5.43217 9.2549C5.51929 9.16911 5.63746 9.12092 5.76067 9.12092H13.8228C13.8839 9.12165 13.9446 9.1105 14.0013 9.08812C14.058 9.06574 14.1096 9.03256 14.1533 8.9905C14.197 8.94844 14.2318 8.8983 14.2557 8.84297C14.2797 8.78763 14.2924 8.72819 14.293 8.66803Z" fill="#223F32"/>
</g>
<defs>
<clipPath id="clip0_9074_94828">
<rect width="133" height="26" fill="white"/>
</clipPath>
</defs>
</svg>
